# xmcd
#
# Track frame offsets:
#	150
#	17622
#	41377
#	57417
#	79583
#	101516
#	122976
#	147792
#	163247
#	189011
#	212400
#	227427
#
# Disc length: 3360 seconds
#
# Revision: 0
# Processed by: cddbd v1.5.2PL0 Copyright (c) Steve Scherf et al.
# Submitted via: dBpowerAMP V4.0
#
DISCID=900d1e0c
DTITLE=Lancelot - Hidden In My Dream
DYEAR=2004
DGENRE=Ballad
TTITLE0=Trouble Mind
TTITLE1=Whatever
TTITLE2=So Long
TTITLE3=Dark Cloud
TTITLE4=Hidden In My Dream
TTITLE5=Remain Unchanged
TTITLE6=Something Else
TTITLE7=In The Sweet
TTITLE8=She Stands EveryWhere
TTITLE9=Drowsing Wizard
TTITLE10=In Harmony
TTITLE11=When You Sleep
EXTD=
EXTT0=
EXTT1=
EXTT2=
EXTT3=
EXTT4=
EXTT5=
EXTT6=
EXTT7=
EXTT8=
EXTT9=
EXTT10=
EXTT11=
PLAYORDER=
